<svg width="586" height="760" viewBox="0 0 586 760" fill="none" xmlns="http://www.w3.org/2000/svg">
<g opacity="0.5">
<path d="M497.692 496.615L410.231 409.154" stroke="#505685"/>
<path d="M585.154 409.154L497.692 321.692" stroke="url(#paint0_linear_3_125)"/>
<path d="M410.231 409.154L497.692 321.692" stroke="#505685"/>
<path d="M497.692 496.615L585.154 409.154" stroke="#505685"/>
<path d="M410.231 409.154L293.615 292.538" stroke="#505685"/>
<path d="M497.692 321.692L381.077 205.077" stroke="url(#paint1_linear_3_125)"/>
<path d="M293.615 292.538L381.077 205.077" stroke="#505685"/>
<path d="M410.231 409.154L497.692 321.692" stroke="url(#paint2_linear_3_125)"/>
<path d="M177 1L264.461 88.4615" stroke="#505685"/>
<path d="M89.5382 88.4615L177 175.923" stroke="#505685"/>
<path d="M264.461 88.4615L177 175.923" stroke="#505685"/>
<path d="M177 1L89.5382 88.4615" stroke="#505685"/>
<path d="M264.461 88.4615L381.077 205.077" stroke="url(#paint3_linear_3_125)"/>
<path d="M177 175.923L293.615 292.538" stroke="#505685"/>
<path d="M264.461 88.4615L177 175.923" stroke="#505685"/>
<path d="M293.615 292.538L381.077 380" stroke="#505685"/>
<path d="M206.154 380L293.615 467.461" stroke="#505685"/>
<path d="M381.077 380L293.615 467.461" stroke="#505685"/>
<path d="M381.077 380L497.692 496.615" stroke="#505685"/>
<path d="M293.615 467.461L410.231 584.077" stroke="#505685"/>
<path d="M497.692 496.615L410.231 584.077" stroke="url(#paint4_linear_3_125)"/>
<path d="M381.077 380L293.615 467.461" stroke="#505685"/>
<path d="M206.154 380L118.692 292.538" stroke="#505685"/>
<path d="M293.615 292.538L206.154 205.077" stroke="#505685"/>
<path d="M118.692 292.538L206.154 205.077" stroke="#505685"/>
<path d="M118.692 292.538L2.07698 175.923" stroke="#505685"/>
<path d="M206.154 205.077L89.5385 88.4615" stroke="#505685"/>
<path d="M2.07697 175.923L89.5385 88.4615" stroke="url(#paint5_linear_3_125)"/>
<path d="M118.692 292.538L206.154 205.077" stroke="#505685"/>
<path d="M496.615 671.539L409.154 584.077" stroke="#505685"/>
<path d="M584.077 584.077L496.615 496.615" stroke="#505685"/>
<path d="M409.154 584.077L496.615 496.615" stroke="#505685"/>
<path d="M496.615 671.539L584.077 584.077" stroke="#505685"/>
<path d="M409.154 584.077L292.538 467.462" stroke="#505685"/>
<path d="M496.615 496.615L380 380" stroke="#505685"/>
<path d="M292.538 467.462L380 380" stroke="#505685"/>
<path d="M409.154 584.077L496.615 496.615" stroke="url(#paint6_linear_3_125)"/>
<path d="M175.923 175.923L263.385 263.385" stroke="#505685"/>
<path d="M88.4615 263.385L175.923 350.846" stroke="#505685"/>
<path d="M263.385 263.385L175.923 350.846" stroke="#505685"/>
<path d="M175.923 175.923L88.4614 263.385" stroke="#505685"/>
<path d="M263.385 263.385L380 380" stroke="url(#paint7_linear_3_125)"/>
<path d="M175.923 350.846L292.539 467.462" stroke="#505685"/>
<path d="M263.385 263.385L175.923 350.846" stroke="#505685"/>
<path d="M292.538 467.462L380 554.923" stroke="#505685"/>
<path d="M205.077 554.923L292.538 642.385" stroke="#505685"/>
<path d="M380 554.923L292.538 642.385" stroke="#505685"/>
<path d="M380 554.923L496.615 671.539" stroke="url(#paint8_linear_3_125)"/>
<path d="M292.538 642.385L409.154 759" stroke="url(#paint9_linear_3_125)"/>
<path d="M496.615 671.538L409.154 759" stroke="#505685"/>
<path d="M380 554.923L292.538 642.385" stroke="#505685"/>
<path d="M205.077 554.923L117.615 467.462" stroke="#505685"/>
<path d="M292.539 467.462L205.077 380" stroke="#505685"/>
<path d="M117.615 467.462L205.077 380" stroke="#505685"/>
<path d="M117.615 467.462L1.00008 350.846" stroke="#505685"/>
<path d="M205.077 380L88.4616 263.385" stroke="#505685"/>
<path d="M1.00006 350.846L88.4616 263.385" stroke="#505685"/>
<path d="M117.615 467.462L205.077 380" stroke="url(#paint10_linear_3_125)"/>
</g>
<defs>
<linearGradient id="paint0_linear_3_125" x1="585.154" y1="386.636" x2="525.212" y2="347.071" gradientUnits="userSpaceOnUse">
<stop stop-color="#505685"/>
<stop offset="1" stop-color="#FF6B00"/>
</linearGradient>
<linearGradient id="paint1_linear_3_125" x1="496.197" y1="321.692" x2="356.708" y2="264.135" gradientUnits="userSpaceOnUse">
<stop stop-color="#FF6B00"/>
<stop offset="1" stop-color="#505685"/>
</linearGradient>
<linearGradient id="paint2_linear_3_125" x1="432.749" y1="409.154" x2="472.314" y2="349.212" gradientUnits="userSpaceOnUse">
<stop stop-color="#505685"/>
<stop offset="1" stop-color="#FF6B00"/>
</linearGradient>
<linearGradient id="paint3_linear_3_125" x1="264.461" y1="118.486" x2="344.383" y2="171.239" gradientUnits="userSpaceOnUse">
<stop stop-color="#505685"/>
<stop offset="0.421875" stop-color="#FF6B00"/>
<stop offset="1" stop-color="#505685"/>
</linearGradient>
<linearGradient id="paint4_linear_3_125" x1="475.174" y1="496.615" x2="435.609" y2="556.557" gradientUnits="userSpaceOnUse">
<stop stop-color="#505685"/>
<stop offset="0.0001" stop-color="#505685"/>
<stop offset="0.317708" stop-color="#FF6B00"/>
<stop offset="1" stop-color="#505685"/>
</linearGradient>
<linearGradient id="paint5_linear_3_125" x1="2.07697" y1="175.923" x2="44.8423" y2="70.3552" gradientUnits="userSpaceOnUse">
<stop stop-color="#505685"/>
<stop offset="0.494792" stop-color="#FF6B00"/>
<stop offset="1" stop-color="#505685"/>
</linearGradient>
<linearGradient id="paint6_linear_3_125" x1="431.672" y1="584.077" x2="471.237" y2="524.135" gradientUnits="userSpaceOnUse">
<stop stop-color="#FF6B00"/>
<stop offset="0.234375" stop-color="#505685"/>
</linearGradient>
<linearGradient id="paint7_linear_3_125" x1="292.912" y1="293.286" x2="395.908" y2="335.272" gradientUnits="userSpaceOnUse">
<stop stop-color="#505685"/>
<stop offset="0.75" stop-color="#FF6B00"/>
<stop offset="1" stop-color="#505685"/>
</linearGradient>
<linearGradient id="paint8_linear_3_125" x1="380" y1="584.947" x2="459.922" y2="637.701" gradientUnits="userSpaceOnUse">
<stop stop-color="#505685"/>
<stop offset="0.0001" stop-color="#505685"/>
<stop offset="0.317708" stop-color="#FF6B00"/>
<stop offset="1" stop-color="#505685"/>
</linearGradient>
<linearGradient id="paint9_linear_3_125" x1="292.538" y1="672.409" x2="372.461" y2="725.162" gradientUnits="userSpaceOnUse">
<stop stop-color="#505685"/>
<stop offset="0.0001" stop-color="#505685"/>
<stop offset="0.317708" stop-color="#FF6B00"/>
<stop offset="1" stop-color="#505685"/>
</linearGradient>
<linearGradient id="paint10_linear_3_125" x1="117.615" y1="467.462" x2="160.381" y2="361.894" gradientUnits="userSpaceOnUse">
<stop stop-color="#505685"/>
<stop offset="0.0582928" stop-color="#FF6B00"/>
<stop offset="1" stop-color="#505685"/>
</linearGradient>
</defs>
</svg>
